<svg width="25" height="31" viewBox="0 0 25 31" fill="none" xmlns="http://www.w3.org/2000/svg">
<path d="M23.6111 11.1111H20.8333V7.63889C20.8333 5.61293 20.0285 3.66995 18.596 2.23738C17.1634 0.804809 15.2204 0 13.1944 0H11.8056C9.7796 0 7.83661 0.804809 6.40405 2.23738C4.97148 3.66995 4.16667 5.61293 4.16667 7.63889V11.1111H1.38889C1.02053 11.1111 0.667263 11.2574 0.406796 11.5179C0.146329 11.7784 0 12.1316 0 12.5V29.1667C0 29.535 0.146329 29.8883 0.406796 30.1488C0.667263 30.4092 1.02053 30.5556 1.38889 30.5556H23.6111C23.9795 30.5556 24.3327 30.4092 24.5932 30.1488C24.8537 29.8883 25 29.535 25 29.1667V12.5C25 12.1316 24.8537 11.7784 24.5932 11.5179C24.3327 11.2574 23.9795 11.1111 23.6111 11.1111ZM6.94444 7.63889C6.94444 6.34964 7.4566 5.1132 8.36823 4.20156C9.27987 3.28993 10.5163 2.77778 11.8056 2.77778H13.1944C14.4837 2.77778 15.7201 3.28993 16.6318 4.20156C17.5434 5.1132 18.0556 6.34964 18.0556 7.63889V11.1111H6.94444V7.63889ZM22.2222 27.7778H2.77778V13.8889H22.2222V27.7778Z" fill="black"/>
<path d="M6.94466 22.9167C8.09525 22.9167 9.02799 21.9839 9.02799 20.8333C9.02799 19.6827 8.09525 18.75 6.94466 18.75C5.79407 18.75 4.86133 19.6827 4.86133 20.8333C4.86133 21.9839 5.79407 22.9167 6.94466 22.9167Z" fill="black"/>
<path d="M12.4998 22.9167C13.6504 22.9167 14.5832 21.9839 14.5832 20.8333C14.5832 19.6827 13.6504 18.75 12.4998 18.75C11.3492 18.75 10.4165 19.6827 10.4165 20.8333C10.4165 21.9839 11.3492 22.9167 12.4998 22.9167Z" fill="black"/>
<path d="M18.056 22.9167C19.2066 22.9167 20.1393 21.9839 20.1393 20.8333C20.1393 19.6827 19.2066 18.75 18.056 18.75C16.9054 18.75 15.9727 19.6827 15.9727 20.8333C15.9727 21.9839 16.9054 22.9167 18.056 22.9167Z" fill="black"/>
</svg>
