<svg width="135" height="136" viewBox="0 0 135 136" fill="none" xmlns="http://www.w3.org/2000/svg">
<path d="M119.416 111.373C126.344 102.981 131.162 93.0322 133.462 82.369C135.763 71.7059 135.478 60.6418 132.633 50.1127C129.788 39.5836 124.465 29.8992 117.116 21.8785C109.766 13.8579 100.606 7.73691 90.4099 4.03341C80.2136 0.329911 69.2812 -0.847197 58.5374 0.601645C47.7937 2.05049 37.5546 6.08266 28.6861 12.3571C19.8177 18.6316 12.5809 26.9637 7.58771 36.6489C2.59454 46.334 -0.00806949 57.0872 1.87947e-05 67.9989C0.0037978 83.8633 5.55763 99.2197 15.687 111.373L15.5905 111.454C15.9282 111.864 16.3142 112.215 16.6626 112.616C17.0969 113.119 17.562 113.587 18.0136 114.077C19.3647 115.55 20.7514 116.968 22.2115 118.302C22.653 118.706 23.1109 119.085 23.5625 119.476C25.1065 120.817 26.6911 122.086 28.3394 123.271C28.5522 123.423 28.7408 123.608 28.9551 123.76V123.698C40.256 131.704 53.7374 136 67.556 136C81.3746 136 94.856 131.704 106.157 123.698V123.759C106.371 123.607 106.56 123.422 106.773 123.27C108.419 122.085 110.005 120.816 111.549 119.475C112.001 119.087 112.459 118.705 112.901 118.302C114.36 116.966 115.747 115.548 117.098 114.076C117.549 113.587 118.012 113.118 118.449 112.615C118.796 112.214 119.184 111.863 119.522 111.453L119.416 111.373ZM67.5516 29.1417C71.8461 29.1417 76.0441 30.4236 79.6148 32.8253C83.1855 35.227 85.9685 38.6406 87.6119 42.6345C89.2553 46.6283 89.6853 51.0231 88.8475 55.263C88.0097 59.5029 85.9417 63.3974 82.9051 66.4542C79.8685 69.511 75.9996 71.5927 71.7876 72.4361C67.5757 73.2794 63.21 72.8466 59.2424 71.1923C55.2749 69.5379 51.8838 66.7365 49.4979 63.1421C47.1121 59.5477 45.8386 55.3218 45.8386 50.9989C45.8386 45.202 48.1262 39.6425 52.1982 35.5435C56.2702 31.4445 61.793 29.1417 67.5516 29.1417ZM28.985 111.373C29.0683 104.996 31.6428 98.9075 36.1514 94.4261C40.66 89.9447 46.7402 87.4305 53.0763 87.4275H82.027C88.3631 87.4307 94.4432 89.9449 98.9517 94.4263C103.46 98.9076 106.035 104.996 106.118 111.373C95.5361 120.972 81.7964 126.285 67.5516 126.285C53.3069 126.285 39.5672 120.972 28.985 111.373Z" fill="#90B562"/>
</svg>
