<svg width="27" height="21" viewBox="0 0 27 21" fill="none" xmlns="http://www.w3.org/2000/svg">
<path d="M2.38889 18.0238L9.33333 10.1667M24.6111 18.0238L17.6667 10.1667M1 4.92857L11.0347 11.236C11.9257 11.7961 12.3711 12.0762 12.8526 12.1849C13.2782 12.2812 13.7218 12.2812 14.1474 12.1849C14.6289 12.0762 15.0743 11.7961 15.9653 11.236L26 4.92857M5.44444 19.3333H21.5556C23.1112 19.3333 23.8892 19.3333 24.4833 19.0479C25.006 18.7968 25.431 18.3961 25.6972 17.9033C26 17.3431 26 16.6097 26 15.1429V5.19048C26 3.72368 26 2.99027 25.6972 2.43003C25.431 1.93721 25.006 1.53655 24.4833 1.28546C23.8892 1 23.1112 1 21.5556 1H5.44444C3.88875 1 3.11089 1 2.51669 1.28546C1.99401 1.53655 1.56907 1.93721 1.30276 2.43003C1 2.99027 1 3.72367 1 5.19048V15.1429C1 16.6097 1 17.3431 1.30276 17.9033C1.56907 18.3961 1.99401 18.7968 2.51669 19.0479C3.11089 19.3333 3.88874 19.3333 5.44444 19.3333Z" stroke="black" stroke-width="2" stroke-linecap="round" stroke-linejoin="round"/>
</svg>
